<?xml version="1.0" encoding="utf-8"?>
<!-- Generator: Adobe Illustrator 24.1.2, SVG Export Plug-In . SVG Version: 6.00 Build 0)  -->
<svg version="1.1" id="Layer_1" xmlns="http://www.w3.org/2000/svg" xmlns:xlink="http://www.w3.org/1999/xlink" x="0px" y="0px"
	 viewBox="0 0 64 64" style="enable-background:new 0 0 64 64;" xml:space="preserve">
<g>
	<g>
		<path d="M55.5,21.41c0,1.1-0.9,2-2,2H11.1c-1.1,0-2-0.9-2-2v-8.31c0-1.1,0.9-2,2-2h42.4c1.1,0,2,0.9,2,2V21.41z"/>
	</g>
	<g>
		<path d="M55.5,36.46c0,1.1-0.9,2-2,2H11.1c-1.1,0-2-0.9-2-2v-8.31c0-1.1,0.9-2,2-2h42.4c1.1,0,2,0.9,2,2V36.46z"/>
	</g>
	<g>
		<path d="M55.5,51.51c0,1.1-0.9,2-2,2H11.1c-1.1,0-2-0.9-2-2v-8.31c0-1.1,0.9-2,2-2h42.4c1.1,0,2,0.9,2,2V51.51z"/>
	</g>
</g>
</svg>
