<?xml version="1.0" encoding="utf-8"?>
<!-- Generator: Adobe Illustrator 24.1.2, SVG Export Plug-In . SVG Version: 6.00 Build 0)  -->
<svg version="1.1" id="Layer_1" xmlns="http://www.w3.org/2000/svg" xmlns:xlink="http://www.w3.org/1999/xlink" x="0px" y="0px"
	 viewBox="0 0 64 64" style="enable-background:new 0 0 64 64;" xml:space="preserve">
<g>
	<g>
		<path d="M20.35,11.28c1.1,0,2,0.9,2,2v14.08c0,1.1-0.9,2-2,2H11c-1.1,0-2-0.9-2-2V13.28c0-1.1,0.9-2,2-2H20.35z"/>
	</g>
	<g>
		<path d="M36.68,11.28c1.1,0,2,0.9,2,2v14.08c0,1.1-0.9,2-2,2h-9.35c-1.1,0-2-0.9-2-2V13.28c0-1.1,0.9-2,2-2H36.68z"/>
	</g>
	<g>
		<path d="M53,11.28c1.1,0,2,0.9,2,2v14.08c0,1.1-0.9,2-2,2h-9.35c-1.1,0-2-0.9-2-2V13.28c0-1.1,0.9-2,2-2H53z"/>
	</g>
	<g>
		<path d="M20.35,34.65c1.1,0,2,0.9,2,2v14.08c0,1.1-0.9,2-2,2H11c-1.1,0-2-0.9-2-2V36.65c0-1.1,0.9-2,2-2H20.35z"/>
	</g>
	<g>
		<path d="M36.68,34.65c1.1,0,2,0.9,2,2v14.08c0,1.1-0.9,2-2,2h-9.35c-1.1,0-2-0.9-2-2V36.65c0-1.1,0.9-2,2-2H36.68z"/>
	</g>
	<g>
		<path d="M53,34.65c1.1,0,2,0.9,2,2v14.08c0,1.1-0.9,2-2,2h-9.35c-1.1,0-2-0.9-2-2V36.65c0-1.1,0.9-2,2-2H53z"/>
	</g>
</g>
</svg>
